<?xml version="1.0" encoding="UTF-8" standalone="no"?>
<svg
   xmlns:dc="http://purl.org/dc/elements/1.1/"
   xmlns:cc="http://creativecommons.org/ns#"
   xmlns:rdf="http://www.w3.org/1999/02/22-rdf-syntax-ns#"
   xmlns:svg="http://www.w3.org/2000/svg"
   xmlns="http://www.w3.org/2000/svg"
   xmlns:sodipodi="http://sodipodi.sourceforge.net/DTD/sodipodi-0.dtd"
   xmlns:inkscape="http://www.inkscape.org/namespaces/inkscape"
   inkscape:version="1.0beta2 (2b71d25, 2019-12-03)"
   sodipodi:docname="blue-dragon.svg"
   xml:space="preserve"
   enable-background="new 0 0 1827.8491 1630.479"
   viewBox="0 0 1827.8491 1630.479"
   y="0px"
   x="0px"
   id="Layer_1"
   version="1.1"><metadata
   id="metadata49"><rdf:RDF><cc:Work
       rdf:about=""><dc:format>image/svg+xml</dc:format><dc:type
         rdf:resource="http://purl.org/dc/dcmitype/StillImage" /></cc:Work></rdf:RDF></metadata><defs
   id="defs47" /><sodipodi:namedview
   inkscape:current-layer="Layer_1"
   inkscape:window-maximized="0"
   inkscape:window-y="0"
   inkscape:window-x="0"
   inkscape:cy="815.2395"
   inkscape:cx="913.92456"
   inkscape:zoom="0.41214882"
   showgrid="false"
   id="namedview45"
   inkscape:window-height="1120"
   inkscape:window-width="1792"
   inkscape:pageshadow="2"
   inkscape:pageopacity="0"
   guidetolerance="10"
   gridtolerance="10"
   objecttolerance="10"
   borderopacity="1"
   inkscape:document-rotation="0"
   bordercolor="#666666"
   pagecolor="#ffffff" />
<g
   style="fill:#4155f5;fill-opacity:1"
   id="g42">
	<path
   style="fill:#4155f5;fill-opacity:1"
   id="path10"
   d="M1348.5485,729.9233c8.0298,39.72,26.7749,67.851,56.2029,90.2496c26.2251,19.9611,32.4017,49.6147,19.672,80.5384   c-3.8905,9.4511-6.9841,19.5286-14.3036,26.8203c-11.7659,7.3438-24.6714,2.3893-38.0283,4.7347   c-7.2247,5.5873-15.3014,11.8337-19.3932,14.9982c-13.608,7.0458-22.7694,0.501-31.8059,2.3872   c-32.6238,30.0319-68.1871,45.6934-112.8861,23.4504c-6.2655,21.1672,10.3617,33.4102,19.9908,45.8397   c14.5421,18.7717,18.3275,38.6425,16.9532,60.5899c-2.3341,37.2747-5.9534,74.1443-31.5052,104.7386   c-14.9937,17.9523-32.1982,22.7053-54.8359,14.6248c45.601-47.0701,54.27-73.6921,37.0518-115.1317   c-9.3607,11.1455-16.2101,26.001-36.3798,21.871c4.4779-26.6871-4.2457-50.5248-17.6549-73.89   c-11.0012-19.1694-2.975-39.6796,3.5333-57.5828c-13.4623-13.6821-21.9863,6.0513-32.8617,1.2281   c-4.1117-23.4448,8.6854-40.2892,56.5067-74.5016c-0.6868-11.816-16.2148-8.0782-19.4678-20.2169   c13.1727-13.6431,31.3752-13.4935,50.7012-13.7567c2.708-44.5072-21.7424-72.4584-53.7104-95.074   c-19.3259-13.6721-39.8823-26.462-61.5594-35.7366c-27.2072-11.6408-40.1322-32.1934-43.8542-59.1273   c-8.0804-58.4709-4.7585-115.3879,29.2402-166.7227c-24.5895-1.5002-38.709,7.7516-57.4562,37.5634   c-3.3444,0.7686-6.7298-0.0676-7.9037-3.0654c-19.5353-49.8888-62.5836-64.9318-109.3601-67.7622   c-40.8598-2.4724-71.3011,23.5687-97.3733,52.39c-25.6751,28.3826-40.8407,62.6467-44.8884,100.4819   c-10.0322,93.7729-3.6245,185.7411,35.1994,273.406c28.4779,64.3036,64.2812,124.6259,106.1528,180.6992   c47.057,63.0175,91.024,127.439,123.6761,199.2202c6.6141,14.54,7.6997,30.1274,9.3251,45.1609   c8.5646,79.2139-7.3576,152.9963-59.309,214.8823c-19.3994,23.1093-36.4271,49.9845-64.8725,64.6649   c-7.848,4.0504-14.8893,11.6195-24.7122,4.2393c80.6198-97.7614,67.8771-198.5548,10.1796-303.4913   c33.6716,2.5034,48.7258,25.4336,60.6442,48.0868c11.8251,22.4757,17.9803,47.9344,27.7238,75.1639   c18.3212-23.5623,20.444-48.824,18.6344-73.5122c-6.3024-85.9813-35.2761-163.7894-95.0642-226.7761   c-47.8371-50.3965-90.555-104.2552-125.6403-163.8912c-64.6661-109.9154-108.7066-225.4998-88.4063-356.5782   c13.231-85.4324,60.8203-147.1745,133.1906-192.1214c81.7446-50.7687,167.5088-53.1508,256.3513-23.6138   c12.641,4.2027,24.8436,9.7239,38.7285,15.2206c15.5631,32.4545,35.8108,62.2993,74.256,74.1083   c-18.369-23.8669-34.729-48.0534-39.5249-78.6852c-2.4479-15.6347-0.9847-31.1196-0.0221-46.255   c2.9036-45.6523-0.1243-91.761,7.1771-137.316c15.7251,0.6705,15.3125,12.2068,16.6597,20.3339   c11.1549,67.294,42.2388,126.7593,71.8311,186.9279c16.7858,34.1298,47.433,50.2284,79.4792,64.5084   c85.0608-6.5157,155.6819-51.5962,229.8101-86.0658c81.1643-37.7411,159.4395-81.5992,241.3009-118.0577   c2.5775-1.148,5.5718-1.3602,14.824-3.5027c-9.1006,16.7973-20.1844,25.4542-31.3818,31.8795   c-46.7534,26.8277-87.4764,62.5128-132.9064,90.7905c-72.828,45.3315-139.8068,99.618-215.349,140.4085   c-24.6787,13.3257-39.8801,35.0363-58.0942,53.8165c-15.1383,15.6089-10.843,40.6051-9.0974,59.4633   C1366.307,688.592,1360.899,709.5378,1348.5485,729.9233z M1249.1873,576.1708c-8.2125,69.32,7.7249,105.2531,54.2598,122.3362   C1318.8341,660.3804,1297.975,603.7016,1249.1873,576.1708z" />
	<path
   style="fill:#4155f5;fill-opacity:1"
   id="path12"
   d="M840.6968,1260.4471c-47.5423-15.8964-37.7892-64.6831-57.6799-99.1818c-36.6772-0.9995-51.7769-27.6544-65.5294-58.4963   c-27.4315-61.5186-76.491-103.7823-131.3949-140.2324c-120.3798-79.919-209.5628-185.0209-255.1106-323.5088   c-12.8087-38.9446-23.4956-79.2052-24.6935-120.1338c33.0155-59.1992,33.0155-59.1992,56.2474-62.7736   c6.8852,6.1457,4.4268,13.5357,1.0829,19.7255c-23.4915,43.4854-16.3686,89.5005-6.3355,133.3742   c25.8324,112.9618,90.2383,202.8795,179.4762,274.4329c40.0403,32.1053,85.4327,57.4724,127.8456,86.6967   c65.8508,45.374,123.9439,99.2351,170.4445,164.4768c19.5748,27.4639,27.6166,59.978,27.058,93.8622   C861.8736,1242.8903,854.985,1254.1246,840.6968,1260.4471z" />
	<path
   style="fill:#4155f5;fill-opacity:1"
   id="path14"
   d="M138.0878,118.7085c9.3166,28.2077,0.9843,55.7134-1.2842,83.1097c-4.0839,49.3183,2.3342,97.2347,11.5421,144.6924   c17.3644,89.4966,47.1662,175.4174,88.9019,256.4039c51.1731,99.2995,110.3166,192.9624,194.123,269.6455   c22.8988,20.9525,47.2572,41.7994,68.0072,65.1901c-5.9439,7.3344-11.0096,5.2319-15.1282,2.2833   c-75.6216-54.1401-149.2272-110.8158-203.0695-188.1038c-35.857-51.471-69.2058-104.7051-103.0539-157.5493   c-9.3639-14.6191-17.6823-30.2019-18.0886-44.8271c-3.878-11.7423-13.6593-9.622-16.1084-14.9881   C58.0438,396.3569,86.1543,257.46,138.0878,118.7085z" />
	<path
   style="fill:#4155f5;fill-opacity:1"
   id="path16"
   d="M17.169,651.3581c29.9476,21.811,56.0737,46.3145,80.7202,71.4933c29.8045,30.4485,62.8503,56.7895,95.5178,83.2372   c67.4909,54.6407,138.154,105.5899,218.9605,139.3645c50.5001,21.1075,102.7923,37.8954,153.5778,58.3648   c27.207,10.9659,51.8381,26.9305,66.4764,55.0268c-41.8272-24.5187-89.1772-25.2318-134.4121-31.4073   c-67.3833-9.1993-126.1355-36.8343-184.1927-69.7051c-45.8166-25.9405-88.7956-56.4122-135.0936-81.3708   c-28.8893-15.5736-52.491-35.876-68.8727-64.9078C86.0973,769.358,49.646,735.8939,28.0803,692.0435   C21.7616,679.1954,16.3363,666.8961,17.169,651.3581z" />
	<path
   style="fill:#4155f5;fill-opacity:1"
   id="path18"
   d="M694.2786,474.7765c-36.4977,22.3297-51.8984,54.8167-49.3879,96.7909c0.7925,13.2505-2.0352,26.7323-7.2336,38.5893   c-12.2288,9.0168-25.9205,9.5624-39.1866,10.7914c-72.3821,6.7056-76.1999,35.9805-94.6486,88.4614   c-1.9704,5.6052,0.6815,12.5273-7.507,20.5016c-17.0255-21.1757-12.2403-44.6712-7.8022-66.2243   c5.6817-27.5926,21.6007-50.9211,38.9857-72.9342c4.4229-5.6004,10.2363-10.4112,11.7396-18.319   c-4.3895-13.3835-20.3054-6.8686-29.0168-16.982c9.6152-14.4775,35.024-6.1188,41.0103-28.8875   c-30.6069-2.4882-64.5628,2.5947-83.7769-29.929c2.2146-5.9707,6.3409-7.1478,12.1783-5.4001   c38.3735,11.4891,68.6472-4.0708,95.4765-29.4918c23.9589-22.7012,51.848-33.3071,84.7112-29.1762   C683.2729,435.515,692.1077,445.9361,694.2786,474.7765z" />
	<path
   style="fill:#4155f5;fill-opacity:1"
   id="path20"
   d="M765.6292,16.7725c-43.031,70.6181,30.1337,175.715,104.0029,173.6897c-3.2113-30.9532-20.7629-62.377-1.6039-92.6979   c11.0104-0.7027,12.2279,5.9934,13.3099,11.898c5.4138,29.5444,20.5578,52.6851,42.6888,72.9537   c27.044,24.768,46.5722,54.5703,49.5715,92.7973c1.6003,20.3968-0.9303,39.0593-20.5146,54.7657   c-25.2488-2.0143-52.9099-10.6511-81.2563,6.9962c-1.3787-24.1101,12.0901-42.8494,4.8084-55.0758   c-20.8953-37.9444-52.7131-52.8982-81.2553-70.6455c-58.3208-36.2633-72.9719-88.2305-60.3357-151.7686   c2.5972-13.0594,3.3299-26.7651,11.7243-38.1034C750.8491,16.0712,755.8032,13.303,765.6292,16.7725z" />
	<path
   style="fill:#4155f5;fill-opacity:1"
   id="path22"
   d="M684.6379,294.9551c-37.3248-72.1052-38.9761-84.2641-14.4288-100.2846c8.3032,1.8808,5.8431,9.786,8.2902,14.9426   c12.3165,25.9542,27.7372,47.0829,58.8914,54.0786c33.5651,7.5371,60.7213,25.643,72.9028,60.3861   c3.7671,10.7442,8.3307,21.4323-0.372,36.9111c-34.5461,4.6099-63.0067,30.3112-90.4714,48.1769   c-11.3876-5.1828-13.8599-9.5591-15.762-14.5065c-15.9582-41.5092-48.6988-57.7066-91.0723-44.8932   c-10.8735,3.2881-21.3284,8.3313-32.3801,10.5866c-27.8837,5.6901-52.4871,0.3631-70.8411-23.1051   c2.0186-3.1318,3.4895-6.331,4.0662-6.1772c30.7813,8.2104,57.7631-0.8658,85.1732-14.9467   C624.863,302.6495,653.0471,292.7333,684.6379,294.9551z" />
	<path
   style="fill:#4155f5;fill-opacity:1"
   id="path24"
   d="M675.8857,1123.7313c-1.5273,5.1051-4.417,9.1359-8.7738,8.1064c-60.9578-14.4034-120.7827,1.009-180.8421,7.0511   c-71.6182,7.205-139.5649-6.1339-205.6603-32.4703c-6.6466-2.6484-14.4488-3.6814-18.9828-9.8372   c-25.4886-34.6044-58.8034-63.1097-79.1432-101.6769c-0.7324-1.3887,0.5032-3.8154,0.8501-5.9316   c7.1311-5.962,10.626,0.7643,15.3072,4.2288c39.72,29.3965,80.8666,54.4647,128.4157,71.7459   c64.9225,23.5956,130.5045,26.2388,197.8016,26.7432C576.8764,1092.0806,629.8085,1093.4454,675.8857,1123.7313z" />
	<path
   style="fill:#4155f5;fill-opacity:1"
   id="path26"
   d="M1097.0146,349.2373c-26.066-15.6198-53.5845-22.8399-83.4891-28.8938c1.9207-49.0692,22.5433-98.7723-20.7234-139.4022   c28.5829-10.5875,41.05,10.4987,61.6072,27.8317c-4.9939-49.4362-25.7979-94.0842,1.7705-143.4106   c14.259,31.2426,16.8295,60.3502,32.0547,84.1943c15.275,23.9221,22.7991,50.465,26.8855,78.2137   C1120.2122,262.3493,1112.3572,321.444,1097.0146,349.2373z" />
	<path
   style="fill:#4155f5;fill-opacity:1"
   id="path28"
   d="M1257.7845,106.2875c-7.2848,74.7063-2.3893,143.9256,33.4244,207.8821c19.0664-34.2696,8.9115-78.2622,41.9424-104.6779   c8.9221,3.2771,8.5717,8.5436,7.2504,13.6012c-9.7408,37.2871-1.5447,73.8904,4.6222,110.4088   c4.6902,27.7739,5.8809,55.383,2.2123,83.2754c-2.6346,20.0308-5.6577,26.1036-23.4821,43.2702   c-6.8416-26.4142-25.5168-44.0076-40.1927-64.5876c-59.3043-83.1624-71.5814-175.1084-41.2111-272.6413   c1.2095-3.8842,3.3527-7.5669,5.5897-10.9988C1248.8641,110.4018,1251.1851,109.8945,1257.7845,106.2875z" />
	<path
   style="fill:#4155f5;fill-opacity:1"
   id="path30"
   d="M318.9763,1224.459c11.3902-7.8734,19.764-4.3292,27.1353-2.1505c74.129,21.9106,146.192,13.8538,217.9707-11.6904   c31.0382-11.0457,61.2941-23.915,92.1553-35.2992c17.8386-6.5801,35.7087-6.3433,54.1062-3.4425   c-0.6386,4.0676-0.4667,7.3315-1.2917,7.6067c-64.9489,21.6649-115.6367,70.6764-180.5114,93.1016   c-37.9675,13.124-76.0783,17.703-115.4974,16.4064c-6.0191-0.1979-13.6848-0.6956-17.6632-4.2916   C371.9585,1263.53,343.0756,1249.1377,318.9763,1224.459z" />
	<path
   style="fill:#4155f5;fill-opacity:1"
   id="path32"
   d="M684.3647,1522.3231c0.5078-14.5957,10.1301-20.8992,17.1757-27.1523c49.6591-44.0735,65.1931-102.6407,71.6557-165.095   c2.1107-20.3959,1.9473-41.0181,3.3875-61.4971c0.5587-7.9431,1.8195-16.1484,9.1309-22.3818   c22.11,15.151,18.586,40.0989,19.1515,59.5157c1.4933,51.2744,1.1923,102.9725-12.3624,153.4269   c-5.4799,20.3986-16.1494,36.3263-35.4084,43.8844C734.2144,1512.0037,714.037,1532.4468,684.3647,1522.3231z" />
	<path
   style="fill:#4155f5;fill-opacity:1"
   id="path34"
   d="M515.2111,1388.1337c13.1924-9.4943,29.0125-4.4138,41.962-10.5691c30.1614-14.3364,57.6111-32.1921,79.4178-57.8245   c28.0114-32.9255,51.0668-70.1108,84.0651-98.7054c6.772-5.868,13.7012-18.2374,25.3151-5.3347   c0.7294,8.1407-4.702,13.7283-9.0024,18.9032c-33.3287,40.1051-51.6839,88.9807-78.6021,132.792   c-28.0936,45.7242-37.425,49.0583-91.4257,40.6903c-14.2091-2.2019-28.6188-2.6576-42.0905-8.559   C520.9,1397.796,517.4188,1396.1917,515.2111,1388.1337z" />
	<path
   style="fill:#4155f5;fill-opacity:1"
   id="path36"
   d="M634.2805,675.8945c-11.0605,23.2865,7.9536,45.169,3.4498,66.1697c-12.3968,24.0812-38.2098,16.7452-54.6893,29.8857   c-16.1581,12.8843-15.3833,34.6812-29.8891,47.7047c-29.2048-35.692-9.4113-65.2516,35.6495-99.52   c-3.1523-13.544-17.2587-1.8338-22.7579-9.7856C574.2859,681.5327,596.2463,669.9396,634.2805,675.8945z" />
	<path
   style="fill:#4155f5;fill-opacity:1"
   id="path38"
   d="M652.3296,915.5825c-51.7938-39.8002-60.3772-76.3856-1.2432-129.789c9.6219,20.423,18.9661,40.2565,28.9512,61.4503   C660.1467,862.7208,643.8375,880.5194,652.3296,915.5825z" />
	<path
   style="fill:#4155f5;fill-opacity:1"
   id="path40"
   d="M742.3406,962.8785c-5.263,2.9711-7.7104,5.1583-10.5004,5.7614c-5.9568,1.2876-12.0911,1.7545-19.3264,2.7131   c-12.8137-6.6266-26.2549-13.5779-38.465-19.8924c-9.1705-37.6198-5.4872-46.6636,23.2613-60.6323   c18.9111,2.7296,17.2507,20.793,24.062,32.3875C728.5612,935.4536,734.701,948.3076,742.3406,962.8785z" />
</g>
</svg>
